<?xml version="1.0" encoding="utf-8"?>
<!-- Generator: Adobe Illustrator 19.2.1, SVG Export Plug-In . SVG Version: 6.00 Build 0)  -->
<!DOCTYPE svg PUBLIC "-//W3C//DTD SVG 1.1//EN" "http://www.w3.org/Graphics/SVG/1.1/DTD/svg11.dtd">
<svg version="1.1" id="Layer_1" xmlns="http://www.w3.org/2000/svg" xmlns:xlink="http://www.w3.org/1999/xlink" x="0px" y="0px"
	 viewBox="0 0 233.6 22.5" style="enable-background:new 0 0 233.6 22.5;" xml:space="preserve">
<style type="text/css">
	.st0{fill:#595A5C;}
</style>
<g>
	<path class="st0" d="M0,0.4h13.1v2.3H2.9v6.9h7.7v2.3H2.9v10.1H0V0.4z"/>
	<path class="st0" d="M20.7,22.5c-1.3,0-2.3-0.2-3.2-0.6s-1.5-1-2.1-1.7c-0.5-0.7-0.9-1.6-1.1-2.5c-0.2-1-0.3-2-0.3-3.2
		c0-1.2,0.1-2.2,0.4-3.2c0.3-1,0.7-1.8,1.3-2.5s1.3-1.3,2.1-1.7c0.9-0.4,1.9-0.6,3-0.6c1.2,0,2.2,0.2,3.1,0.6
		C24.7,7.5,25.4,8,26,8.7c0.5,0.7,0.9,1.5,1.2,2.5c0.3,1,0.4,2.1,0.4,3.2c0,1.2-0.1,2.2-0.4,3.2c-0.2,1-0.7,1.8-1.2,2.5
		c-0.6,0.7-1.3,1.3-2.1,1.7C23,22.3,22,22.5,20.7,22.5z M20.8,20.5c1.4,0,2.4-0.5,3-1.5c0.6-1,0.9-2.5,0.9-4.5
		c0-1.9-0.3-3.3-0.9-4.4c-0.6-1-1.6-1.5-3-1.5c-1.5,0-2.5,0.5-3.1,1.5s-0.9,2.5-0.9,4.5c0,0.9,0.1,1.8,0.2,2.5
		c0.1,0.7,0.4,1.4,0.7,1.9c0.3,0.5,0.7,0.9,1.2,1.2C19.5,20.4,20.1,20.5,20.8,20.5z"/>
	<path class="st0" d="M32.5,9h-2.7V7h2.8V2.6h2.7V7h4.4v2h-4.4v8.6c0,0.6,0,1,0.1,1.4c0.1,0.3,0.2,0.6,0.4,0.8
		c0.2,0.2,0.4,0.3,0.7,0.4c0.3,0.1,0.5,0.1,0.9,0.1s0.7,0,1.1-0.1c0.4-0.1,0.8-0.2,1.2-0.4l0.6,1.8c-0.3,0.2-0.8,0.3-1.4,0.5
		c-0.6,0.1-1.2,0.2-1.9,0.2c-0.7,0-1.3-0.1-1.9-0.2s-1-0.4-1.4-0.7c-0.4-0.3-0.7-0.8-0.9-1.3s-0.3-1.3-0.3-2.1V9z"/>
	<path class="st0" d="M48.5,22.5c-1.3,0-2.3-0.2-3.2-0.6s-1.5-1-2.1-1.7c-0.5-0.7-0.9-1.6-1.1-2.5c-0.2-1-0.3-2-0.3-3.2
		c0-1.2,0.1-2.2,0.4-3.2c0.3-1,0.7-1.8,1.3-2.5s1.3-1.3,2.1-1.7c0.9-0.4,1.9-0.6,3-0.6c1.2,0,2.2,0.2,3.1,0.6
		c0.9,0.4,1.6,0.9,2.1,1.7c0.5,0.7,0.9,1.5,1.2,2.5c0.3,1,0.4,2.1,0.4,3.2c0,1.2-0.1,2.2-0.4,3.2c-0.2,1-0.7,1.8-1.2,2.5
		c-0.6,0.7-1.3,1.3-2.1,1.7C50.8,22.3,49.7,22.5,48.5,22.5z M48.6,20.5c1.4,0,2.4-0.5,3-1.5c0.6-1,0.9-2.5,0.9-4.5
		c0-1.9-0.3-3.3-0.9-4.4c-0.6-1-1.6-1.5-3-1.5c-1.5,0-2.5,0.5-3.1,1.5s-0.9,2.5-0.9,4.5c0,0.9,0.1,1.8,0.2,2.5
		c0.1,0.7,0.4,1.4,0.7,1.9c0.3,0.5,0.7,0.9,1.2,1.2C47.2,20.4,47.9,20.5,48.6,20.5z"/>
	<path class="st0" d="M75.2,20.8c-0.6,0.5-1.2,0.8-2,1.2c-0.7,0.3-1.6,0.5-2.6,0.5c-2,0-3.6-0.7-4.6-2c-1-1.3-1.5-3.3-1.5-6
		c0-1.2,0.2-2.3,0.5-3.3c0.3-1,0.8-1.8,1.4-2.5C66.9,8,67.6,7.4,68.6,7c0.9-0.4,2-0.6,3.2-0.6c0.5,0,1,0,1.5,0.1
		c0.5,0.1,0.9,0.2,1.3,0.3V0h2.8v19l1.3,1.9l-1.9,1.5L75.2,20.8z M74.5,8.8c-0.3-0.1-0.7-0.2-1.2-0.3c-0.5-0.1-1-0.1-1.6-0.1
		c-1.5,0-2.6,0.5-3.3,1.5c-0.7,1-1.1,2.5-1.1,4.5c0,1.9,0.3,3.3,0.9,4.4c0.6,1.1,1.5,1.6,2.9,1.6c0.8,0,1.5-0.1,2-0.4
		c0.5-0.3,1-0.6,1.4-1V8.8z"/>
	<path class="st0" d="M93.4,21.3c-0.5,0.3-1.2,0.5-2.1,0.8c-0.9,0.2-1.9,0.4-2.8,0.4c-1.4,0-2.5-0.2-3.4-0.6
		c-0.9-0.4-1.6-0.9-2.2-1.6c-0.5-0.7-0.9-1.5-1.2-2.5c-0.2-1-0.3-2.1-0.3-3.3c0-1.1,0.1-2.1,0.4-3.1c0.3-1,0.7-1.8,1.2-2.5
		c0.5-0.7,1.2-1.3,2.1-1.7c0.8-0.4,1.8-0.6,3-0.6c1.1,0,2.1,0.2,2.8,0.7s1.4,1,1.8,1.8c0.5,0.7,0.8,1.5,1,2.5
		c0.2,0.9,0.3,1.8,0.3,2.8l-1,1h-8.8c0.1,1.7,0.5,3,1.2,3.9c0.7,0.9,1.8,1.3,3.2,1.3c0.8,0,1.5-0.1,2.1-0.2c0.7-0.2,1.3-0.4,1.9-0.7
		L93.4,21.3z M91.2,13.3c0-1.6-0.3-2.8-0.9-3.6c-0.6-0.8-1.4-1.2-2.6-1.2c-1.2,0-2.1,0.4-2.6,1.3c-0.5,0.9-0.8,2-0.9,3.5H91.2z"/>
	<path class="st0" d="M104,9h-1.8V7h3.8l0.5,1.9c0.3-0.3,0.5-0.5,0.8-0.8s0.6-0.5,0.9-0.7c0.3-0.2,0.7-0.3,1.1-0.4
		c0.4-0.1,0.9-0.2,1.5-0.2c0.7,0,1.3,0.1,1.9,0.2l-0.8,2.5c-0.2-0.1-0.5-0.2-0.8-0.2c-0.3,0-0.6-0.1-0.9-0.1c-1.4,0-2.6,0.5-3.5,1.5
		v11.1H104V9z"/>
	<path class="st0" d="M125.9,21.3c-0.5,0.3-1.2,0.5-2.1,0.8c-0.9,0.2-1.9,0.4-2.8,0.4c-1.4,0-2.5-0.2-3.4-0.6
		c-0.9-0.4-1.6-0.9-2.2-1.6c-0.5-0.7-0.9-1.5-1.2-2.5c-0.2-1-0.3-2.1-0.3-3.3c0-1.1,0.1-2.1,0.4-3.1c0.3-1,0.7-1.8,1.2-2.5
		c0.5-0.7,1.2-1.3,2.1-1.7c0.8-0.4,1.8-0.6,3-0.6c1.1,0,2.1,0.2,2.8,0.7s1.4,1,1.8,1.8c0.5,0.7,0.8,1.5,1,2.5
		c0.2,0.9,0.3,1.8,0.3,2.8l-1,1h-8.8c0.1,1.7,0.5,3,1.2,3.9c0.7,0.9,1.8,1.3,3.2,1.3c0.8,0,1.5-0.1,2.1-0.2c0.7-0.2,1.3-0.4,1.9-0.7
		L125.9,21.3z M123.7,13.3c0-1.6-0.3-2.8-0.9-3.6c-0.6-0.8-1.4-1.2-2.6-1.2c-1.2,0-2.1,0.4-2.6,1.3c-0.5,0.9-0.8,2-0.9,3.5H123.7z"
		/>
	<path class="st0" d="M130.9,9h-2.1V7h2.1V5.5c0-0.7,0.1-1.4,0.2-2.1c0.2-0.7,0.4-1.2,0.8-1.7c0.4-0.5,0.9-0.9,1.5-1.2S135,0,136,0
		c0.5,0,1.1,0.1,1.6,0.2c0.6,0.1,1.1,0.3,1.6,0.6l-0.7,1.8c-0.2-0.1-0.5-0.2-0.9-0.3c-0.4-0.1-0.9-0.2-1.4-0.2c-0.6,0-1,0.1-1.3,0.3
		c-0.3,0.2-0.6,0.4-0.7,0.8c-0.2,0.3-0.3,0.7-0.3,1.2s-0.1,1-0.1,1.6V7h4.3v2h-4.3v12.9h-2.8V9z"/>
	<path class="st0" d="M151.6,21.3c-0.5,0.3-1.2,0.5-2.1,0.8c-0.9,0.2-1.9,0.4-2.8,0.4c-1.4,0-2.5-0.2-3.4-0.6
		c-0.9-0.4-1.6-0.9-2.2-1.6c-0.5-0.7-0.9-1.5-1.2-2.5c-0.2-1-0.3-2.1-0.3-3.3c0-1.1,0.1-2.1,0.4-3.1c0.3-1,0.7-1.8,1.2-2.5
		c0.5-0.7,1.2-1.3,2.1-1.7c0.8-0.4,1.8-0.6,3-0.6c1.1,0,2.1,0.2,2.8,0.7s1.4,1,1.8,1.8c0.5,0.7,0.8,1.5,1,2.5
		c0.2,0.9,0.3,1.8,0.3,2.8l-1,1h-8.8c0.1,1.7,0.5,3,1.2,3.9c0.7,0.9,1.8,1.3,3.2,1.3c0.8,0,1.5-0.1,2.1-0.2c0.7-0.2,1.3-0.4,1.9-0.7
		L151.6,21.3z M149.4,13.3c0-1.6-0.3-2.8-0.9-3.6c-0.6-0.8-1.4-1.2-2.6-1.2c-1.2,0-2.1,0.4-2.6,1.3c-0.5,0.9-0.8,2-0.9,3.5H149.4z"
		/>
	<path class="st0" d="M156.3,9h-1.8V7h3.8l0.5,1.9c0.3-0.3,0.5-0.5,0.8-0.8s0.6-0.5,0.9-0.7c0.3-0.2,0.7-0.3,1.1-0.4
		c0.4-0.1,0.9-0.2,1.5-0.2c0.7,0,1.3,0.1,1.9,0.2l-0.8,2.5c-0.2-0.1-0.5-0.2-0.8-0.2c-0.3,0-0.6-0.1-0.9-0.1c-1.4,0-2.6,0.5-3.5,1.5
		v11.1h-2.8V9z"/>
	<path class="st0" d="M178.3,21.3c-0.5,0.3-1.2,0.5-2.1,0.8c-0.9,0.2-1.9,0.4-2.8,0.4c-1.4,0-2.5-0.2-3.4-0.6
		c-0.9-0.4-1.6-0.9-2.2-1.6c-0.5-0.7-0.9-1.5-1.2-2.5c-0.2-1-0.3-2.1-0.3-3.3c0-1.1,0.1-2.1,0.4-3.1c0.3-1,0.7-1.8,1.2-2.5
		c0.5-0.7,1.2-1.3,2.1-1.7c0.8-0.4,1.8-0.6,3-0.6c1.1,0,2.1,0.2,2.8,0.7s1.4,1,1.8,1.8c0.5,0.7,0.8,1.5,1,2.5
		c0.2,0.9,0.3,1.8,0.3,2.8l-1,1h-8.8c0.1,1.7,0.5,3,1.2,3.9c0.7,0.9,1.8,1.3,3.2,1.3c0.8,0,1.5-0.1,2.1-0.2c0.7-0.2,1.3-0.4,1.9-0.7
		L178.3,21.3z M176.1,13.3c0-1.6-0.3-2.8-0.9-3.6c-0.6-0.8-1.4-1.2-2.6-1.2c-1.2,0-2.1,0.4-2.6,1.3c-0.5,0.9-0.8,2-0.9,3.5H176.1z"
		/>
	<path class="st0" d="M182.9,10.1l-1.2-2.5l2.2-1.2l1.2,2c0.9-0.7,1.7-1.2,2.5-1.5c0.8-0.3,1.6-0.4,2.5-0.4c1,0,1.8,0.2,2.5,0.5
		c0.7,0.3,1.2,0.7,1.6,1.3s0.7,1.1,0.8,1.8s0.2,1.4,0.2,2.2v9.7h-2.8v-9.5c0-1.3-0.3-2.2-0.8-2.7c-0.5-0.6-1.3-0.8-2.3-0.8
		c-0.8,0-1.5,0.1-2.2,0.4s-1.3,0.6-1.7,1v11.7h-2.8V10.1z"/>
	<path class="st0" d="M211.1,21.3c-0.5,0.3-1.2,0.6-2,0.8s-1.7,0.4-2.8,0.4c-1.4,0-2.5-0.2-3.4-0.6c-0.9-0.4-1.6-0.9-2.1-1.6
		c-0.5-0.7-0.9-1.5-1.1-2.5c-0.2-1-0.3-2-0.3-3.2c0-1.2,0.1-2.2,0.4-3.2c0.3-1,0.7-1.9,1.3-2.6c0.6-0.7,1.3-1.3,2.2-1.7
		c0.9-0.4,2-0.6,3.3-0.6c0.9,0,1.8,0.1,2.5,0.4s1.4,0.5,2,0.8l-0.8,1.8c-0.5-0.3-1.1-0.5-1.7-0.7c-0.6-0.2-1.3-0.3-2-0.3
		c-1.5,0-2.5,0.5-3.2,1.5c-0.7,1-1,2.5-1,4.6c0,0.9,0.1,1.7,0.2,2.4c0.1,0.7,0.4,1.3,0.7,1.8c0.3,0.5,0.8,0.9,1.3,1.2
		c0.6,0.3,1.2,0.4,2.1,0.4c0.7,0,1.3-0.1,1.8-0.2c0.5-0.1,1.2-0.4,2-0.7L211.1,21.3z"/>
	<path class="st0" d="M214.3,9h-1.9V7h4.7v14.9h-2.8V9z M215.4,4.2c-0.6,0-1-0.2-1.4-0.6c-0.3-0.4-0.5-0.9-0.5-1.4s0.2-1.1,0.5-1.4
		c0.3-0.4,0.8-0.6,1.4-0.6c0.6,0,1.1,0.2,1.4,0.6c0.3,0.4,0.5,0.9,0.5,1.4s-0.2,1.1-0.5,1.4C216.4,4,216,4.2,215.4,4.2z"/>
	<path class="st0" d="M230.3,20.7c-0.6,0.5-1.2,0.9-1.9,1.2s-1.6,0.5-2.7,0.5c-1.5,0-2.7-0.4-3.5-1.2c-0.9-0.8-1.3-2-1.3-3.6
		c0-0.9,0.2-1.6,0.5-2.2c0.3-0.6,0.7-1.1,1.3-1.5c0.6-0.4,1.2-0.7,2-0.8c0.8-0.2,1.7-0.3,2.6-0.3h2.6v-0.7c0-1.3-0.2-2.1-0.6-2.7
		c-0.4-0.5-1.1-0.8-2.2-0.8c-1.4,0-2.9,0.3-4.4,0.9l-0.7-1.8c0.6-0.2,1.3-0.5,2.2-0.7c0.9-0.3,2-0.4,3.2-0.4c1.2,0,2.1,0.2,2.8,0.5
		c0.7,0.3,1.2,0.8,1.5,1.3c0.3,0.6,0.6,1.2,0.7,2c0.1,0.8,0.1,1.6,0.1,2.4V19l1.3,1.9l-1.9,1.5L230.3,20.7z M229.6,14.7h-2.4
		c-1.4,0-2.3,0.2-2.9,0.6c-0.6,0.4-0.9,1.2-0.9,2.2c0,1,0.2,1.7,0.6,2.2c0.4,0.5,1,0.7,1.9,0.7c0.9,0,1.6-0.2,2.2-0.5
		c0.6-0.3,1.1-0.6,1.4-1V14.7z"/>
</g>
</svg>
